HIERARCHY
ROOT Hips
{
	OFFSET 0.000000 0.000000 0.000000
	CHANNELS 6 Xposition Yposition Zposition Zrotation Yrotation Xrotation 
	JOINT LHipJoint
	{
		OFFSET 0.000000 0.000000 0.000000
		CHANNELS 3 Zrotation Yrotation Xrotation
		JOINT LeftUpLeg
		{
			OFFSET 1.363060 -1.794630 0.839290
			CHANNELS 3 Zrotation Yrotation Xrotation
			JOINT LeftLeg
			{
				OFFSET 2.448110 -6.726130 0.000000
				CHANNELS 3 Zrotation Yrotation Xrotation
				JOINT LeftFoot
				{
					OFFSET 2.562200 -7.039590 0.000000
					CHANNELS 3 Zrotation Yrotation Xrotation
					JOINT LeftToeBase
					{
						OFFSET 0.157640 -0.433110 2.322550
						CHANNELS 3 Zrotation Yrotation Xrotation
						End Site
						{
							OFFSET 0.000000 0.000000 0.000000
						}
					}
				}
			}
		}
	}
	JOINT RHipJoint
	{
		OFFSET 0.000000 0.000000 0.000000
		CHANNELS 3 Zrotation Yrotation Xrotation
		JOINT RightUpLeg
		{
			OFFSET -1.305520 -1.794630 0.839290
			CHANNELS 3 Zrotation Yrotation Xrotation
			JOINT RightLeg
			{
				OFFSET -2.542530 -6.985550 0.000000
				CHANNELS 3 Zrotation Yrotation Xrotation
				JOINT RightFoot
				{
					OFFSET -2.568260 -7.056230 0.000000
					CHANNELS 3 Zrotation Yrotation Xrotation
					JOINT RightToeBase
					{
						OFFSET -0.164730 -0.452590 2.363150
						CHANNELS 3 Zrotation Yrotation Xrotation
						End Site
						{
							OFFSET 0.000000 0.000000 0.000000
						}
					}
				}
			}
		}
	}
	JOINT LowerBack
	{
		OFFSET 0.000000 0.000000 0.000000
		CHANNELS 3 Zrotation Yrotation Xrotation
		JOINT Spine
		{
			OFFSET 0.028270 2.035590 -0.193380
			CHANNELS 3 Zrotation Yrotation Xrotation
			JOINT Spine1
			{
				OFFSET 0.056720 2.048850 -0.042750
				CHANNELS 3 Zrotation Yrotation Xrotation
				JOINT Neck
				{
					OFFSET 0.000000 0.000000 0.000000
					CHANNELS 3 Zrotation Yrotation Xrotation
					JOINT Neck1
					{
						OFFSET -0.054170 1.746240 0.172020
						CHANNELS 3 Zrotation Yrotation Xrotation
						JOINT Head
						{
							OFFSET 0.104070 1.761360 -0.123970
							CHANNELS 3 Zrotation Yrotation Xrotation
							End Site
							{
								OFFSET 0.000000 0.000000 0.000000
							}
						}
					}
				}
				JOINT LeftShoulder
				{
					OFFSET 0.000000 0.000000 0.000000
					CHANNELS 3 Zrotation Yrotation Xrotation
					JOINT LeftArm
					{
						OFFSET 3.362410 1.200890 -0.311210
						CHANNELS 3 Zrotation Yrotation Xrotation
						JOINT LeftForeArm
						{
							OFFSET 4.983000 -0.000000 -0.000000
							CHANNELS 3 Zrotation Yrotation Xrotation
							JOINT LeftHand
							{
								OFFSET 3.483560 -0.000000 -0.000000
								CHANNELS 3 Zrotation Yrotation Xrotation
								JOINT LeftFingerBase
								{
									OFFSET 0.000000 0.000000 0.000000
									CHANNELS 3 Zrotation Yrotation Xrotation
									JOINT LeftHandIndex1
									{
										OFFSET 0.715260 -0.000000 -0.000000
										CHANNELS 3 Zrotation Yrotation Xrotation
										End Site
										{
											OFFSET 0.000000 0.000000 0.000000
										}
									}
								}
								JOINT LThumb
								{
									OFFSET 0.000000 0.000000 0.000000
									CHANNELS 3 Zrotation Yrotation Xrotation
									End Site
									{
										OFFSET 0.000000 0.000000 0.000000
									}
								}
							}
						}
					}
				}
				JOINT RightShoulder
				{
					OFFSET 0.000000 0.000000 0.000000
					CHANNELS 3 Zrotation Yrotation Xrotation
					JOINT RightArm
					{
						OFFSET -3.136600 1.374050 -0.404650
						CHANNELS 3 Zrotation Yrotation Xrotation
						JOINT RightForeArm
						{
							OFFSET -5.241900 -0.000000 -0.000000
							CHANNELS 3 Zrotation Yrotation Xrotation
							JOINT RightHand
							{
								OFFSET -3.444170 -0.000000 -0.000000
								CHANNELS 3 Zrotation Yrotation Xrotation
								JOINT RightFingerBase
								{
									OFFSET 0.000000 0.000000 0.000000
									CHANNELS 3 Zrotation Yrotation Xrotation
									JOINT RightHandIndex1
									{
										OFFSET -0.622530 -0.000000 -0.000000
										CHANNELS 3 Zrotation Yrotation Xrotation
										End Site
										{
											OFFSET 0.000000 0.000000 0.000000
										}
									}
								}
								JOINT RThumb
								{
									OFFSET 0.000000 0.000000 0.000000
									CHANNELS 3 Zrotation Yrotation Xrotation
									End Site
									{
										OFFSET 0.000000 0.000000 0.000000
									}
								}
							}
						}
					}
				}
			}
		}
	}
}
MOTION
Frames: 11
Frame Time: 0.008333
-12.896138 17.069981 44.299763 -178.375410 1.192299 -153.145921 -2.437407 -6.016110 -8.983832 -7.228363 2.071722 -64.751795 8.114570 19.399847 56.042253 5.379974 -15.713314 20.577764 0.401700 -4.069100 -11.271100 9.991437 -1.337354 8.881027 9.455934 3.750906 -1.667919 -1.135395 -9.552729 22.982752 -4.526009 -23.004818 54.941189 -1.660500 8.119800 -23.078600 3.848854 2.681657 18.082636 0.185814 3.500587 -4.301838 -2.262513 1.978457 -7.014735 -2.958478 -4.226766 -16.257796 5.144089 -6.214162 -3.998811 1.277200 -3.426600 2.541400 4.859505 -3.114565 0.202174 -82.769020 41.978866 38.864269 110.475267 -59.680202 -81.400774 -0.124049 -0.463052 -14.447544 17.003407 -8.383391 -2.453800 -7.125000 0.000000 0.000000 -6.964400 21.697100 3.924700 -6.313119 3.908108 0.223976 82.169518 -1.722808 40.028155 -118.244180 55.415371 -89.511386 1.450418 -0.090618 -6.680697 -20.732572 6.897146 -2.888200 7.125000 0.000000 0.000000 3.381900 -22.307900 1.848200 
-12.879874 17.093075 43.767828 -178.318707 0.358910 -153.780267 -2.782010 -6.285233 -8.679961 -6.975841 2.101697 -62.178533 7.724739 19.088631 54.894988 5.333290 -14.832808 21.390005 0.615700 -5.022000 -13.971300 9.588661 -0.555156 8.088332 11.001954 2.202869 -3.241181 -2.665480 -11.117667 28.604180 -4.115204 -21.288642 53.677302 -1.782300 8.397100 -23.926900 4.057713 2.434208 18.717112 0.238645 3.268158 -4.250616 -1.963623 1.804991 -6.991667 -3.054611 -4.239804 -16.338366 5.199173 -6.249998 -4.193184 1.299700 -3.460400 2.439200 4.818914 -3.244401 0.286896 -83.924649 39.396976 38.793049 108.707392 -59.711899 -80.069094 -0.201952 -0.452346 -14.763448 17.903152 -8.398620 -2.615600 -7.125000 0.000000 0.000000 -6.257100 21.604200 3.534400 -6.191763 3.907252 0.196825 83.026878 -2.711604 39.038616 -111.847304 57.107416 -84.776550 1.447365 0.063014 -6.736951 -20.533922 6.282887 -2.554400 7.125000 0.000000 0.000000 3.510700 -23.143600 1.851700 
-12.868164 17.094377 43.236217 -178.418364 -0.442446 -154.201634 -3.145789 -6.459178 -8.270560 -7.042433 2.007073 -59.873997 7.612928 18.875621 54.349928 5.419905 -14.278403 19.889057 0.260700 -3.284600 -9.072000 9.110713 0.138716 7.178346 12.388859 1.072907 -5.050437 -4.594019 -12.772818 34.701853 -3.343797 -21.118200 51.779769 -1.444000 7.596600 -21.495400 4.141256 2.139091 18.969894 0.279750 2.956277 -4.206253 -1.656626 1.618102 -6.925317 -3.041361 -4.191566 -16.103963 5.275569 -6.236703 -4.462705 1.323400 -3.471500 2.170200 4.775209 -3.350391 0.367363 -84.943254 36.780440 38.813256 106.763856 -59.756862 -78.587559 -0.276275 -0.442091 -15.234235 18.722944 -8.598213 -2.831000 -7.125000 0.000000 0.000000 -5.609000 21.318400 3.201100 -6.075810 3.906043 0.165988 83.972331 -3.776739 38.096131 -104.391147 58.322196 -79.217409 1.470680 0.249458 -7.048084 -20.566540 5.619817 -2.225700 7.125000 0.000000 0.000000 3.450400 -24.045000 1.748200 
-12.859599 17.090582 42.700161 -178.613987 -1.040767 -154.571170 -3.550366 -6.535231 -7.806188 -7.357183 2.042880 -57.525591 7.810708 18.730961 54.115986 4.938920 -11.136028 16.467129 0.560900 -4.797000 -13.330400 8.673510 0.693158 6.321362 13.388914 0.318511 -6.960135 -6.565772 -14.207650 40.457974 -2.491179 -21.712686 49.739978 -0.977400 6.293400 -17.638100 4.088492 1.888422 19.106777 0.283212 2.667807 -4.155412 -1.383355 1.454967 -6.775477 -3.263776 -4.193912 -16.053370 5.474811 -6.216807 -4.640335 1.486000 -3.453700 2.042000 4.696970 -3.445328 0.435617 -85.760867 34.011078 38.941900 104.766346 -59.770671 -77.075552 -0.341811 -0.446584 -15.692194 19.339732 -8.708510 -2.983900 -7.125000 0.000000 0.000000 -5.114100 21.150700 2.935800 -5.987622 3.928543 0.101525 84.990606 -4.930728 37.240181 -96.221977 58.771740 -72.975025 1.529325 0.432961 -7.315021 -21.006015 5.085037 -1.990600 7.125000 0.000000 0.000000 3.060700 -24.789200 1.497400 
-12.862201 17.143276 42.137649 -179.722032 -1.559139 -154.973685 -4.152282 -6.623770 -7.174091 -8.561689 1.924833 -54.942712 7.544706 18.465150 53.890807 6.211840 -15.328412 14.942855 0.016300 -0.823600 -2.263500 8.217087 1.223813 5.450694 13.255639 -0.597197 -9.681113 -8.350495 -15.362598 46.295058 -1.700704 -20.386704 47.123747 -1.222600 7.013300 -19.754800 3.281875 1.452716 19.476576 0.241550 2.027679 -4.179080 -1.067092 1.158869 -7.115573 -3.089265 -3.997513 -15.756850 5.449358 -6.017420 -4.762002 1.400800 -3.377400 1.883700 4.615848 -3.603922 0.494524 -86.631376 31.339533 38.894582 103.108484 -59.693588 -75.830675 -0.362295 -0.460207 -15.760989 18.991386 -8.548113 -2.872800 -7.125000 0.000000 0.000000 -5.349000 21.345500 3.048100 -5.868711 4.016605 -0.037703 86.188989 -6.197416 36.599800 -86.956472 58.249322 -65.503997 1.586302 0.608415 -8.488349 -21.417066 4.907775 -1.904100 7.125000 0.000000 0.000000 2.686300 -25.116900 1.293400 
-12.860032 17.140457 41.602027 179.473703 -2.111764 -155.265247 -4.659804 -6.644468 -6.633516 -9.372186 1.763835 -52.700674 7.488622 18.234891 53.560761 6.472695 -15.260278 12.869193 0.000500 0.151000 0.414800 7.771740 1.664233 4.684449 13.308513 -1.261053 -12.166399 -10.197950 -16.410866 52.191872 -0.994964 -19.511057 44.573766 -1.233400 7.042900 -19.842600 2.695489 1.103990 19.726824 0.212435 1.520963 -4.179236 -0.738301 0.920026 -7.279446 -3.108813 -3.916022 -15.614824 5.549974 -5.926735 -4.901106 1.436700 -3.340000 1.775000 4.538430 -3.735600 0.545520 -87.332835 28.637781 39.051307 101.526793 -59.595534 -74.623187 -0.402688 -0.459885 -16.036238 19.203748 -8.671503 -2.960800 -7.125000 0.000000 0.000000 -5.166000 21.188800 2.961400 -5.771514 4.095223 -0.184470 87.230809 -7.422039 35.791033 -78.899619 57.117889 -58.542972 1.601151 0.714331 -9.048376 -21.577512 4.523853 -1.719700 7.125000 0.000000 0.000000 2.538200 -25.623000 1.192100 
-12.860683 17.127663 41.072042 178.473060 -2.605753 -155.475236 -5.200806 -6.627863 -6.071825 -10.333053 1.543288 -50.521460 7.399409 17.976357 53.143120 6.727349 -15.131435 10.772126 0.027300 1.066100 2.930700 7.349560 2.055111 3.941398 12.936781 -1.831188 -14.906780 -12.003960 -17.294502 58.038871 -0.335671 -18.462310 41.804983 -1.267600 7.136200 -20.119500 1.933049 0.742228 19.949833 0.165018 0.955764 -4.194723 -0.398277 0.661364 -7.482802 -3.144582 -3.842062 -15.502521 5.681532 -5.835395 -5.020677 1.490600 -3.298000 1.698000 4.450006 -3.854425 0.580123 -87.924253 25.903675 39.251906 100.231120 -59.456999 -73.638592 -0.436742 -0.456566 -16.276937 19.366264 -8.824440 -3.052000 -7.125000 0.000000 0.000000 -5.024900 21.001800 2.901200 -5.679365 4.176111 -0.327864 88.225449 -8.675868 34.670607 -71.462595 55.660718 -51.755475 1.613308 0.763090 -9.451245 -21.819076 4.218650 -1.593900 7.125000 0.000000 0.000000 2.337700 -25.984900 1.078000 
-12.864044 17.111182 40.546720 177.365743 -3.069554 -155.605350 -5.750723 -6.575155 -5.499423 -11.323665 1.245408 -48.399648 7.285196 17.701310 52.663877 6.974162 -15.005996 8.766264 0.069400 1.700200 4.677900 6.945360 2.410147 3.215402 12.240408 -2.331263 -17.879046 -13.728421 -18.018026 63.732328 0.240067 -17.225605 38.864070 -1.357600 7.375300 -20.832100 1.105453 0.370321 20.155108 0.105532 0.353612 -4.225146 -0.065579 0.386459 -7.708373 -3.212383 -3.788418 -15.449799 5.845320 -5.757067 -5.123061 1.568500 -3.257800 1.658500 4.353395 -3.955592 0.597326 -88.414820 23.137069 39.486342 99.351771 -59.285070 -72.986297 -0.465076 -0.449244 -16.475106 19.510259 -9.008685 -3.152300 -7.125000 0.000000 0.000000 -4.903100 20.780300 2.854900 -5.589771 4.247802 -0.449879 89.121633 -9.978437 33.181672 -64.807935 54.091736 -45.528306 1.633367 0.764416 -9.575527 -22.113260 4.062888 -1.551600 7.125000 0.000000 0.000000 2.098500 -26.139800 0.959900 
-12.870008 17.090907 40.027145 176.254663 -3.531498 -155.655287 -6.279328 -6.491534 -4.930280 -12.229897 0.867300 -46.345162 7.147658 17.419037 52.132388 7.239370 -15.024938 6.967806 0.116200 2.198100 6.053600 6.546334 2.741624 2.497868 11.355568 -2.762663 -21.058003 -15.357105 -18.597864 69.203059 0.716583 -15.865090 35.788463 -1.474200 7.672300 -21.723000 0.330252 -0.009214 20.333440 0.042725 -0.258817 -4.268754 0.238466 0.102933 -7.946839 -3.303338 -3.766137 -15.428473 6.023645 -5.714048 -5.231380 1.659200 -3.233700 1.630800 4.258119 -4.038673 0.603397 -88.829452 20.357197 39.736449 99.033926 -59.087833 -72.786699 -0.488540 -0.437225 -16.628056 19.668317 -9.212831 -3.263600 -7.125000 0.000000 0.000000 -4.776600 20.533400 2.807400 -5.501807 4.301289 -0.546694 89.877192 -11.375255 31.412486 -59.038001 52.526274 -40.136907 1.664495 0.735132 -9.367748 -22.435184 4.067213 -1.590800 7.125000 0.000000 0.000000 1.835900 -26.095900 0.841600 
-12.879332 17.066728 39.513316 175.235481 -4.016632 -155.636403 -6.765967 -6.381310 -4.373549 -12.964145 0.428353 -44.349070 7.002763 17.137233 51.553519 7.429576 -14.830417 5.301340 0.120200 2.234900 6.155400 6.144271 3.055807 1.784500 10.411276 -3.131780 -24.412384 -16.867976 -19.049263 74.339615 1.085133 -14.467272 32.654609 -1.589700 7.953400 -22.572800 -0.269067 -0.396124 20.472434 -0.017339 -0.852920 -4.321918 0.479453 -0.180073 -8.178572 -3.423852 -3.776587 -15.448243 6.208851 -5.706733 -5.342451 1.763500 -3.225500 1.617800 4.171707 -4.104080 0.605165 -89.193787 17.589654 39.985148 99.421069 -58.867105 -73.160757 -0.506831 -0.420920 -16.736461 19.843980 -9.419294 -3.380300 -7.125000 0.000000 0.000000 -4.643100 20.279900 2.754900 -5.421997 4.331932 -0.623725 90.475737 -12.918707 29.504295 -54.226222 51.053061 -35.717877 1.705812 0.686443 -8.881381 -22.784467 4.234527 -1.712100 7.125000 0.000000 0.000000 1.550400 -25.860200 0.719200 
-12.891151 17.038212 39.003825 174.367661 -4.502503 -155.569706 -7.200103 -6.246967 -3.828328 -13.489180 -0.007289 -42.403821 6.843384 16.858543 50.938763 7.667570 -14.879553 3.923727 0.115900 2.194700 6.043900 5.734173 3.354289 1.072421 9.499837 -3.394842 -27.886245 -18.241666 -19.390794 79.050032 1.351984 -13.100355 29.523311 -1.690300 8.188700 -23.288600 -0.661560 -0.775674 20.551023 -0.068274 -1.396839 -4.377553 0.661452 -0.448490 -8.376435 -3.561395 -3.807696 -15.497072 6.372468 -5.726442 -5.458394 1.862000 -3.232500 1.606800 4.107143 -4.153076 0.610831 -89.554755 14.866030 40.206379 100.635774 -58.609712 -74.204198 -0.519478 -0.400174 -16.818274 20.025327 -9.586766 -3.485100 -7.125000 0.000000 0.000000 -4.510900 20.064000 2.697900 -5.355410 4.334383 -0.686871 90.900596 -14.637603 27.620756 -50.387838 49.757870 -32.282452 1.751187 0.630839 -8.290059 -23.129079 4.525514 -1.895000 7.125000 0.000000 0.000000 1.269300 -25.484100 0.599800 
